<mxfile host="app.diagrams.net" modified="2022-01-15T04:18:35.561Z" agent="5.0 (X11; Linux x86_64) AppleWebKit/537.36 (KHTML, like Gecko) Chrome/99.0.4811.0 Safari/537.36 Edg/99.0.1131.3" etag="oskj9ls5OZAiL903Z12M" version="16.2.7" type="github">
  <diagram id="EVyWv7_xeyxzMkf9LyKp" name="第 1 页">
    <mxGraphModel dx="813" dy="474" grid="1" gridSize="10" guides="1" tooltips="1" connect="1" arrows="1" fold="1" page="1" pageScale="1" pageWidth="850" pageHeight="1100" math="0" shadow="0">
      <root>
        <mxCell id="0" />
        <mxCell id="1" parent="0" />
        <mxCell id="ZZGDymxMc-XeTdS5SKUL-1" value="ctrl" style="rounded=1;whiteSpace=wrap;html=1;" parent="1" vertex="1">
          <mxGeometry x="80" y="420" width="70" height="40" as="geometry" />
        </mxCell>
        <mxCell id="ZZGDymxMc-XeTdS5SKUL-2" value="alt" style="rounded=1;whiteSpace=wrap;html=1;" parent="1" vertex="1">
          <mxGeometry x="210" y="420" width="40" height="40" as="geometry" />
        </mxCell>
        <mxCell id="ro8pggXA1mbVmC7Fge8s-1" value="menu" style="rounded=1;whiteSpace=wrap;html=1;" vertex="1" parent="1">
          <mxGeometry x="680" y="420" width="40" height="40" as="geometry" />
        </mxCell>
        <mxCell id="ro8pggXA1mbVmC7Fge8s-2" value="space" style="rounded=1;whiteSpace=wrap;html=1;" vertex="1" parent="1">
          <mxGeometry x="260" y="420" width="310" height="40" as="geometry" />
        </mxCell>
        <mxCell id="ro8pggXA1mbVmC7Fge8s-3" value="win" style="rounded=1;whiteSpace=wrap;html=1;" vertex="1" parent="1">
          <mxGeometry x="630" y="420" width="40" height="40" as="geometry" />
        </mxCell>
        <mxCell id="ro8pggXA1mbVmC7Fge8s-4" value="win" style="rounded=1;whiteSpace=wrap;html=1;" vertex="1" parent="1">
          <mxGeometry x="160" y="420" width="40" height="40" as="geometry" />
        </mxCell>
        <mxCell id="ro8pggXA1mbVmC7Fge8s-5" value="z" style="rounded=1;whiteSpace=wrap;html=1;" vertex="1" parent="1">
          <mxGeometry x="180" y="370" width="40" height="40" as="geometry" />
        </mxCell>
        <mxCell id="ro8pggXA1mbVmC7Fge8s-6" value="alt" style="rounded=1;whiteSpace=wrap;html=1;" vertex="1" parent="1">
          <mxGeometry x="580" y="420" width="40" height="40" as="geometry" />
        </mxCell>
        <mxCell id="ro8pggXA1mbVmC7Fge8s-7" value="ctrl" style="rounded=1;whiteSpace=wrap;html=1;" vertex="1" parent="1">
          <mxGeometry x="730" y="420" width="75" height="40" as="geometry" />
        </mxCell>
        <mxCell id="ro8pggXA1mbVmC7Fge8s-8" value="shift" style="rounded=1;whiteSpace=wrap;html=1;" vertex="1" parent="1">
          <mxGeometry x="80" y="370" width="90" height="40" as="geometry" />
        </mxCell>
        <mxCell id="ro8pggXA1mbVmC7Fge8s-9" value="n" style="rounded=1;whiteSpace=wrap;html=1;" vertex="1" parent="1">
          <mxGeometry x="430" y="370" width="40" height="40" as="geometry" />
        </mxCell>
        <mxCell id="ro8pggXA1mbVmC7Fge8s-10" value="b" style="rounded=1;whiteSpace=wrap;html=1;" vertex="1" parent="1">
          <mxGeometry x="380" y="370" width="40" height="40" as="geometry" />
        </mxCell>
        <mxCell id="ro8pggXA1mbVmC7Fge8s-11" value="x" style="rounded=1;whiteSpace=wrap;html=1;" vertex="1" parent="1">
          <mxGeometry x="230" y="370" width="40" height="40" as="geometry" />
        </mxCell>
        <mxCell id="ro8pggXA1mbVmC7Fge8s-12" value="c" style="rounded=1;whiteSpace=wrap;html=1;" vertex="1" parent="1">
          <mxGeometry x="280" y="370" width="40" height="40" as="geometry" />
        </mxCell>
        <mxCell id="ro8pggXA1mbVmC7Fge8s-13" value="v" style="rounded=1;whiteSpace=wrap;html=1;" vertex="1" parent="1">
          <mxGeometry x="330" y="370" width="40" height="40" as="geometry" />
        </mxCell>
        <mxCell id="ro8pggXA1mbVmC7Fge8s-15" value="&amp;gt;" style="rounded=1;whiteSpace=wrap;html=1;" vertex="1" parent="1">
          <mxGeometry x="580" y="370" width="40" height="40" as="geometry" />
        </mxCell>
        <mxCell id="ro8pggXA1mbVmC7Fge8s-16" value="&amp;lt;" style="rounded=1;whiteSpace=wrap;html=1;" vertex="1" parent="1">
          <mxGeometry x="530" y="370" width="40" height="40" as="geometry" />
        </mxCell>
        <mxCell id="ro8pggXA1mbVmC7Fge8s-17" value="m" style="rounded=1;whiteSpace=wrap;html=1;" vertex="1" parent="1">
          <mxGeometry x="480" y="370" width="40" height="40" as="geometry" />
        </mxCell>
        <mxCell id="ro8pggXA1mbVmC7Fge8s-18" value="?" style="rounded=1;whiteSpace=wrap;html=1;" vertex="1" parent="1">
          <mxGeometry x="630" y="370" width="40" height="40" as="geometry" />
        </mxCell>
        <mxCell id="ro8pggXA1mbVmC7Fge8s-19" value="shitf" style="rounded=1;whiteSpace=wrap;html=1;" vertex="1" parent="1">
          <mxGeometry x="680" y="370" width="125" height="40" as="geometry" />
        </mxCell>
        <mxCell id="ro8pggXA1mbVmC7Fge8s-20" value="caps lock" style="rounded=1;whiteSpace=wrap;html=1;" vertex="1" parent="1">
          <mxGeometry x="80" y="320" width="80" height="40" as="geometry" />
        </mxCell>
        <mxCell id="ro8pggXA1mbVmC7Fge8s-21" value="l" style="rounded=1;whiteSpace=wrap;html=1;" vertex="1" parent="1">
          <mxGeometry x="570" y="320" width="40" height="40" as="geometry" />
        </mxCell>
        <mxCell id="ro8pggXA1mbVmC7Fge8s-22" value="k" style="rounded=1;whiteSpace=wrap;html=1;" vertex="1" parent="1">
          <mxGeometry x="520" y="320" width="40" height="40" as="geometry" />
        </mxCell>
        <mxCell id="ro8pggXA1mbVmC7Fge8s-23" value="j" style="rounded=1;whiteSpace=wrap;html=1;" vertex="1" parent="1">
          <mxGeometry x="470" y="320" width="40" height="40" as="geometry" />
        </mxCell>
        <mxCell id="ro8pggXA1mbVmC7Fge8s-24" value="h" style="rounded=1;whiteSpace=wrap;html=1;" vertex="1" parent="1">
          <mxGeometry x="420" y="320" width="40" height="40" as="geometry" />
        </mxCell>
        <mxCell id="ro8pggXA1mbVmC7Fge8s-25" value="g" style="rounded=1;whiteSpace=wrap;html=1;" vertex="1" parent="1">
          <mxGeometry x="370" y="320" width="40" height="40" as="geometry" />
        </mxCell>
        <mxCell id="ro8pggXA1mbVmC7Fge8s-26" value="f" style="rounded=1;whiteSpace=wrap;html=1;" vertex="1" parent="1">
          <mxGeometry x="320" y="320" width="40" height="40" as="geometry" />
        </mxCell>
        <mxCell id="ro8pggXA1mbVmC7Fge8s-27" value="d" style="rounded=1;whiteSpace=wrap;html=1;" vertex="1" parent="1">
          <mxGeometry x="270" y="320" width="40" height="40" as="geometry" />
        </mxCell>
        <mxCell id="ro8pggXA1mbVmC7Fge8s-28" value="s" style="rounded=1;whiteSpace=wrap;html=1;" vertex="1" parent="1">
          <mxGeometry x="220" y="320" width="40" height="40" as="geometry" />
        </mxCell>
        <mxCell id="ro8pggXA1mbVmC7Fge8s-29" value="a" style="rounded=1;whiteSpace=wrap;html=1;" vertex="1" parent="1">
          <mxGeometry x="170" y="320" width="40" height="40" as="geometry" />
        </mxCell>
        <mxCell id="ro8pggXA1mbVmC7Fge8s-30" value="enter" style="rounded=1;whiteSpace=wrap;html=1;" vertex="1" parent="1">
          <mxGeometry x="720" y="320" width="85" height="40" as="geometry" />
        </mxCell>
        <mxCell id="ro8pggXA1mbVmC7Fge8s-31" value=";" style="rounded=1;whiteSpace=wrap;html=1;" vertex="1" parent="1">
          <mxGeometry x="620" y="320" width="40" height="40" as="geometry" />
        </mxCell>
        <mxCell id="ro8pggXA1mbVmC7Fge8s-32" value="&#39;" style="rounded=1;whiteSpace=wrap;html=1;" vertex="1" parent="1">
          <mxGeometry x="670" y="320" width="40" height="40" as="geometry" />
        </mxCell>
        <mxCell id="ro8pggXA1mbVmC7Fge8s-33" value="caps lock" style="rounded=1;whiteSpace=wrap;html=1;" vertex="1" parent="1">
          <mxGeometry x="80" y="270" width="70" height="40" as="geometry" />
        </mxCell>
        <mxCell id="ro8pggXA1mbVmC7Fge8s-34" value="q" style="rounded=1;whiteSpace=wrap;html=1;" vertex="1" parent="1">
          <mxGeometry x="160" y="270" width="40" height="40" as="geometry" />
        </mxCell>
        <mxCell id="ro8pggXA1mbVmC7Fge8s-35" value="p" style="rounded=1;whiteSpace=wrap;html=1;" vertex="1" parent="1">
          <mxGeometry x="610" y="270" width="40" height="40" as="geometry" />
        </mxCell>
        <mxCell id="ro8pggXA1mbVmC7Fge8s-36" value="o" style="rounded=1;whiteSpace=wrap;html=1;" vertex="1" parent="1">
          <mxGeometry x="560" y="270" width="40" height="40" as="geometry" />
        </mxCell>
        <mxCell id="ro8pggXA1mbVmC7Fge8s-37" value="i" style="rounded=1;whiteSpace=wrap;html=1;" vertex="1" parent="1">
          <mxGeometry x="510" y="270" width="40" height="40" as="geometry" />
        </mxCell>
        <mxCell id="ro8pggXA1mbVmC7Fge8s-38" value="u" style="rounded=1;whiteSpace=wrap;html=1;" vertex="1" parent="1">
          <mxGeometry x="460" y="270" width="40" height="40" as="geometry" />
        </mxCell>
        <mxCell id="ro8pggXA1mbVmC7Fge8s-39" value="y" style="rounded=1;whiteSpace=wrap;html=1;" vertex="1" parent="1">
          <mxGeometry x="410" y="270" width="40" height="40" as="geometry" />
        </mxCell>
        <mxCell id="ro8pggXA1mbVmC7Fge8s-40" value="t" style="rounded=1;whiteSpace=wrap;html=1;" vertex="1" parent="1">
          <mxGeometry x="360" y="270" width="40" height="40" as="geometry" />
        </mxCell>
        <mxCell id="ro8pggXA1mbVmC7Fge8s-41" value="r" style="rounded=1;whiteSpace=wrap;html=1;" vertex="1" parent="1">
          <mxGeometry x="310" y="270" width="40" height="40" as="geometry" />
        </mxCell>
        <mxCell id="ro8pggXA1mbVmC7Fge8s-42" value="e" style="rounded=1;whiteSpace=wrap;html=1;" vertex="1" parent="1">
          <mxGeometry x="260" y="270" width="40" height="40" as="geometry" />
        </mxCell>
        <mxCell id="ro8pggXA1mbVmC7Fge8s-43" value="w" style="rounded=1;whiteSpace=wrap;html=1;" vertex="1" parent="1">
          <mxGeometry x="210" y="270" width="40" height="40" as="geometry" />
        </mxCell>
        <mxCell id="ro8pggXA1mbVmC7Fge8s-44" value="{" style="rounded=1;whiteSpace=wrap;html=1;" vertex="1" parent="1">
          <mxGeometry x="660" y="270" width="40" height="40" as="geometry" />
        </mxCell>
        <mxCell id="ro8pggXA1mbVmC7Fge8s-45" value="}" style="rounded=1;whiteSpace=wrap;html=1;" vertex="1" parent="1">
          <mxGeometry x="710" y="270" width="45" height="40" as="geometry" />
        </mxCell>
        <mxCell id="ro8pggXA1mbVmC7Fge8s-46" value="\" style="rounded=1;whiteSpace=wrap;html=1;" vertex="1" parent="1">
          <mxGeometry x="760" y="270" width="45" height="40" as="geometry" />
        </mxCell>
        <mxCell id="ro8pggXA1mbVmC7Fge8s-47" value="`" style="rounded=1;whiteSpace=wrap;html=1;" vertex="1" parent="1">
          <mxGeometry x="80" y="220" width="40" height="40" as="geometry" />
        </mxCell>
        <mxCell id="ro8pggXA1mbVmC7Fge8s-48" value="1" style="rounded=1;whiteSpace=wrap;html=1;" vertex="1" parent="1">
          <mxGeometry x="130" y="220" width="40" height="40" as="geometry" />
        </mxCell>
        <mxCell id="ro8pggXA1mbVmC7Fge8s-49" value="backspace" style="rounded=1;whiteSpace=wrap;html=1;" vertex="1" parent="1">
          <mxGeometry x="730" y="220" width="75" height="40" as="geometry" />
        </mxCell>
        <mxCell id="ro8pggXA1mbVmC7Fge8s-50" value="9" style="rounded=1;whiteSpace=wrap;html=1;" vertex="1" parent="1">
          <mxGeometry x="530" y="220" width="40" height="40" as="geometry" />
        </mxCell>
        <mxCell id="ro8pggXA1mbVmC7Fge8s-51" value="8" style="rounded=1;whiteSpace=wrap;html=1;" vertex="1" parent="1">
          <mxGeometry x="480" y="220" width="40" height="40" as="geometry" />
        </mxCell>
        <mxCell id="ro8pggXA1mbVmC7Fge8s-52" value="5" style="rounded=1;whiteSpace=wrap;html=1;" vertex="1" parent="1">
          <mxGeometry x="330" y="220" width="40" height="40" as="geometry" />
        </mxCell>
        <mxCell id="ro8pggXA1mbVmC7Fge8s-53" value="4" style="rounded=1;whiteSpace=wrap;html=1;" vertex="1" parent="1">
          <mxGeometry x="280" y="220" width="40" height="40" as="geometry" />
        </mxCell>
        <mxCell id="ro8pggXA1mbVmC7Fge8s-54" value="=" style="rounded=1;whiteSpace=wrap;html=1;" vertex="1" parent="1">
          <mxGeometry x="680" y="220" width="40" height="40" as="geometry" />
        </mxCell>
        <mxCell id="ro8pggXA1mbVmC7Fge8s-55" value="-" style="rounded=1;whiteSpace=wrap;html=1;" vertex="1" parent="1">
          <mxGeometry x="630" y="220" width="40" height="40" as="geometry" />
        </mxCell>
        <mxCell id="ro8pggXA1mbVmC7Fge8s-56" value="7" style="rounded=1;whiteSpace=wrap;html=1;" vertex="1" parent="1">
          <mxGeometry x="430" y="220" width="40" height="40" as="geometry" />
        </mxCell>
        <mxCell id="ro8pggXA1mbVmC7Fge8s-57" value="6" style="rounded=1;whiteSpace=wrap;html=1;" vertex="1" parent="1">
          <mxGeometry x="380" y="220" width="40" height="40" as="geometry" />
        </mxCell>
        <mxCell id="ro8pggXA1mbVmC7Fge8s-58" value="3" style="rounded=1;whiteSpace=wrap;html=1;" vertex="1" parent="1">
          <mxGeometry x="230" y="220" width="40" height="40" as="geometry" />
        </mxCell>
        <mxCell id="ro8pggXA1mbVmC7Fge8s-59" value="0" style="rounded=1;whiteSpace=wrap;html=1;" vertex="1" parent="1">
          <mxGeometry x="580" y="220" width="40" height="40" as="geometry" />
        </mxCell>
        <mxCell id="ro8pggXA1mbVmC7Fge8s-60" value="2" style="rounded=1;whiteSpace=wrap;html=1;" vertex="1" parent="1">
          <mxGeometry x="180" y="220" width="40" height="40" as="geometry" />
        </mxCell>
      </root>
    </mxGraphModel>
  </diagram>
</mxfile>
